PathFileType	4	(X/Y/Z)	s01c0403.trc
DataRate	CameraRate	NumFrames	NumMarkers	Units	OrigDataRate	OrigDataStartFrame	OrigNumFrames
200	200	5	47	mm	200	1500	2000
Frame#	Time	racr			lacr			c7			jug			rlel			rdr			llel			ldr			lic			ric			lasi			rasi			rpsi			lpsi			rgt			lgt			rth1			rth2			rth3			rth4			rlfc			rsh1			rsh2			rsh3			rsh4			rlmal			rmmal			rcal			rtoe			rmt5			lth1			lth2			lth4			lth3			llfc			lsh1			lsh2			lsh3			lsh4			llmal			lmmal			lcal			ltoe			lmt5			SBIKE			LBIKE			RBIKE			
		X1	Y1	Z1	X2	Y2	Z2	X3	Y3	Z3	X4	Y4	Z4	X5	Y5	Z5	X6	Y6	Z6	X7	Y7	Z7	X8	Y8	Z8	X9	Y9	Z9	X10	Y10	Z10	X11	Y11	Z11	X12	Y12	Z12	X13	Y13	Z13	X14	Y14	Z14	X15	Y15	Z15	X16	Y16	Z16	X17	Y17	Z17	X18	Y18	Z18	X19	Y19	Z19	X20	Y20	Z20	X21	Y21	Z21	X22	Y22	Z22	X23	Y23	Z23	X24	Y24	Z24	X25	Y25	Z25	X26	Y26	Z26	X27	Y27	Z27	X28	Y28	Z28	X29	Y29	Z29	X30	Y30	Z30	X31	Y31	Z31	X32	Y32	Z32	X33	Y33	Z33	X34	Y34	Z34	X35	Y35	Z35	X36	Y36	Z36	X37	Y37	Z37	X38	Y38	Z38	X39	Y39	Z39	X40	Y40	Z40	X41	Y41	Z41	X42	Y42	Z42	X43	Y43	Z43	X44	Y44	Z44	X45	Y45	Z45	X46	Y46	Z46	X47	Y47	Z47	
1500	7.5000	742.119913	1324.083099	-122.122987	721.642897	1292.225032	-502.219221	724.225362	1414.496577	-313.610156	713.387430	1250.088510	-304.321039	595.745104	1096.593091	15.925796	711.866155	895.342781	-57.469165	544.287465	1062.321469	-591.340062	681.529869	892.574491	-482.305438	336.609152	1218.835421	-439.475520	371.408309	1184.869206	-115.597451	368.324301	1172.578767	-444.221720	384.061158	1135.960951	-142.137345	230.492670	1239.563304	-193.373209	213.018795	1250.811103	-296.228083	289.118127	1069.631321	-84.869551	290.918118	1100.296396	-463.412641	317.455146	953.137460	-69.612085	340.559886	872.854952	-72.209298	358.814971	785.127331	-81.045700	393.693546	885.443747	-85.912087	348.992952	667.662643	-99.413166	282.434630	573.475144	-64.101910	250.022646	495.233016	-65.750160	208.902375	416.430595	-74.283228	296.748676	473.929308	-97.860652	153.742227	311.751674	-94.506235	198.037157	308.109244	-166.933407	112.938919	328.020001	-146.909012	270.161336	106.972399	-146.349576	182.360282	164.427388	-71.905635	376.252376	1014.663793	-474.958732	459.993802	986.533967	-482.241205	480.180235	1037.564702	-471.116671	536.131484	951.427443	-475.337935	644.309341	862.776414	-443.683535	523.760192	830.047861	-481.413077	458.969195	773.268857	-472.107472	393.512930	718.796058	-454.511581	498.749516	732.568208	-448.744113	290.701791	627.885396	-431.032271	319.530610	621.698159	-351.120439	227.656431	629.749176	-387.358638	424.559374	434.154433	-383.614022	333.347398	485.122029	-454.318680	-231.511097	890.446649	-257.181544	-24.506444	80.581053	-458.265256	-24.513795	80.507180	-58.063136	
1501	7.5050	742.000732	1323.440721	-125.027555	721.557478	1289.727562	-503.142565	724.342892	1413.615027	-315.036626	712.931735	1249.316667	-304.882316	595.614441	1096.762287	14.904486	711.841667	895.414789	-57.502519	542.437524	1061.206490	-592.437547	681.275365	892.824601	-482.025587	336.091846	1220.988029	-440.227109	370.754749	1187.785957	-115.750401	367.980865	1174.824047	-445.098858	383.774157	1138.444691	-142.344282	230.072811	1241.690255	-194.152768	212.888450	1252.806422	-297.075695	289.139400	1072.083811	-85.217022	290.349286	1102.404563	-463.309128	318.930250	954.856869	-70.277701	342.794422	874.828567	-73.316241	361.982079	787.384528	-82.176804	395.789596	888.091980	-86.648923	351.991621	670.260470	-100.244824	283.975918	577.179227	-64.895919	250.433944	499.409659	-66.436045	208.107483	421.175206	-74.853557	296.853852	477.246584	-98.421181	151.579695	317.480560	-94.336493	196.384410	313.134821	-167.070429	111.253067	335.154781	-147.613420	259.975018	108.142231	-146.241574	174.681873	169.393737	-72.216039	375.002591	1015.303949	-474.056049	458.462973	986.406272	-480.970995	478.297826	1037.857674	-472.151136	534.478489	951.213791	-474.861915	645.352698	863.283124	-441.403485	524.393955	828.683500	-479.967499	460.331882	770.566633	-472.000441	395.847199	715.262892	-454.814355	500.572961	730.515581	-448.221845	293.121484	621.682568	-431.505816	321.760108	616.792903	-351.431589	229.375249	621.357116	-388.198646	434.201284	433.791716	-384.030775	340.955789	480.588728	-454.916560	-231.490619	890.503741	-257.434555	-24.514775	80.538618	-458.331564	-24.516227	80.576584	-58.085587	
1502	7.5100	741.949363	1323.180852	-126.252013	721.427997	1287.121840	-503.999441	724.395005	1412.800406	-316.280673	712.381706	1248.307272	-305.252363	595.350624	1096.914629	14.022776	711.810374	895.506153	-57.522259	540.474676	1060.022595	-593.465543	680.628879	893.145911	-482.017027	335.715407	1223.292525	-441.128732	369.989631	1190.671537	-115.690758	367.742897	1176.818305	-445.584812	383.447727	1140.842284	-142.445390	229.652633	1243.808021	-195.037507	212.827270	1254.673062	-298.014502	289.147614	1074.544309	-85.505812	289.615854	1104.542714	-463.095325	320.528590	956.393471	-71.039784	345.396986	876.742518	-74.541615	365.788477	789.606659	-83.413594	398.613555	890.842118	-86.774944	355.918708	672.910257	-101.240595	286.271690	580.732599	-65.889529	251.488740	503.576501	-67.384399	207.836018	426.012824	-75.824317	297.495489	480.555249	-99.595461	149.293747	323.508412	-94.500501	194.234968	318.217137	-167.615476	109.318624	342.258672	-148.554581	249.894521	109.978792	-146.259336	167.278699	174.802878	-72.686327	373.572126	1015.513184	-473.033394	456.748014	985.711259	-479.649334	476.966947	1037.339839	-471.858571	533.003282	950.172880	-473.854425	645.641668	863.093968	-439.813786	524.310614	825.760692	-478.180724	460.893705	766.495550	-471.525352	397.092069	710.445241	-454.893492	501.433545	726.999083	-447.470123	295.093958	614.467543	-432.169953	323.326735	610.930236	-351.488721	230.739524	612.139572	-389.222219	443.358840	433.209406	-384.567853	347.844877	475.326184	-455.309545	-231.496657	890.535000	-257.701842	-24.495973	80.591430	-458.316227	-24.489701	80.647936	-58.106132	
1503	7.5150	741.882155	1322.806294	-127.406703	721.459933	1284.405889	-504.715738	724.228148	1412.007143	-317.282415	711.648474	1247.263368	-305.541912	595.315931	1097.166674	13.521376	711.738496	895.558980	-57.506217	538.625901	1058.750660	-594.598618	679.963089	893.457698	-482.021336	335.414062	1225.698213	-441.851825	368.951006	1193.770529	-115.499890	367.740250	1178.781699	-446.388082	383.043578	1143.155877	-142.497129	229.301841	1245.907865	-195.945634	212.828427	1256.564433	-299.009474	289.105630	1076.895206	-85.703159	289.014826	1106.592843	-462.933596	322.337592	957.856970	-71.883158	348.402709	878.542071	-75.781634	370.031991	791.791142	-84.847157	401.850564	893.526067	-87.293514	360.501620	675.467246	-102.571127	289.310288	584.268241	-67.014107	253.098311	507.718112	-68.568268	207.957796	430.974883	-76.882254	298.507094	484.030858	-101.036679	146.869181	329.893882	-94.982540	191.575217	323.449012	-168.487149	107.158957	349.585266	-149.344031	240.046199	112.751094	-146.092366	159.810543	180.911156	-73.149310	371.885735	1015.247714	-472.142099	454.878043	984.444930	-478.304952	475.856052	1035.865065	-470.943203	531.521135	948.357606	-472.317944	645.241125	862.336574	-438.914073	523.359780	821.507801	-476.349813	460.616568	761.107531	-470.824669	397.495851	704.080646	-454.884055	501.457247	722.032744	-446.412917	296.759246	606.505112	-432.684028	324.605191	603.994383	-351.488757	232.047968	601.785881	-390.154011	452.432397	431.863313	-385.477328	354.634113	469.120803	-455.861847	-231.479619	890.551999	-257.979618	-24.481726	80.573177	-458.384510	-24.500265	80.731074	-58.162027	
1504	7.5200	741.724173	1322.144286	-128.545882	721.597623	1281.632534	-505.256495	723.969126	1411.309503	-317.960344	710.838150	1246.029500	-305.744322	594.871267	1097.372363	13.087074	711.638556	895.561660	-57.436475	536.880058	1057.514343	-595.734495	679.242920	893.763987	-482.122071	335.221580	1227.938495	-442.690059	367.823645	1196.670791	-115.283365	367.901499	1180.356990	-446.863544	382.615587	1145.392316	-142.549446	229.009160	1247.927184	-196.964271	212.833125	1258.239868	-300.042186	289.023168	1079.164803	-85.862416	288.493954	1108.325813	-462.774005	324.274398	959.164194	-72.869731	351.647140	880.333171	-77.146164	374.714943	793.886528	-86.866840	404.760723	896.010034	-88.339091	365.828931	677.967607	-104.021614	292.850739	587.661480	-68.228874	255.113260	511.850538	-69.847947	208.388219	436.070502	-78.069625	299.725747	487.410989	-102.824790	144.108343	336.699279	-95.684374	188.608883	329.026705	-169.541613	104.902011	357.462252	-150.618166	230.558652	116.481437	-145.875528	152.603786	187.475965	-73.623084	370.145919	1014.542645	-471.093570	452.865638	982.661810	-476.993139	474.377030	1033.679737	-470.562568	529.488069	945.581300	-470.727334	644.321247	860.896964	-438.413074	521.541350	816.093863	-474.682385	459.780832	754.683266	-470.039979	397.499361	696.530606	-454.672388	501.025927	716.105759	-445.248619	298.320947	597.346113	-433.073923	325.771908	596.025340	-351.366189	233.744066	589.520282	-390.751786	460.542279	429.671531	-385.899931	361.532368	462.742753	-456.251265	-231.448209	890.550130	-258.251841	-24.478646	80.544663	-458.419940	-24.478510	80.771420	-58.212088	
